<?xml version="1.0" encoding="UTF-8" standalone="no"?>
<svg
   class="icon icon-tabler icon-tabler-disc"
   width="24"
   height="24"
   viewBox="0 0 24 24"
   stroke-width="1.75"
   stroke="currentColor"
   fill="none"
   stroke-linecap="round"
   stroke-linejoin="round"
   version="1.1"
   id="svg12"
   sodipodi:docname="albums.svg"
   inkscape:version="1.2.2 (b0a84865, 2022-12-01)"
   xmlns:inkscape="http://www.inkscape.org/namespaces/inkscape"
   xmlns:sodipodi="http://sodipodi.sourceforge.net/DTD/sodipodi-0.dtd"
   xmlns="http://www.w3.org/2000/svg"
   xmlns:svg="http://www.w3.org/2000/svg">
  <defs
     id="defs16" />
  <sodipodi:namedview
     id="namedview14"
     pagecolor="#ffffff"
     bordercolor="#000000"
     borderopacity="0.25"
     inkscape:showpageshadow="2"
     inkscape:pageopacity="0.0"
     inkscape:pagecheckerboard="0"
     inkscape:deskcolor="#d1d1d1"
     showgrid="false"
     inkscape:zoom="9.8333333"
     inkscape:cx="12"
     inkscape:cy="12"
     inkscape:window-width="1309"
     inkscape:window-height="456"
     inkscape:window-x="0"
     inkscape:window-y="38"
     inkscape:window-maximized="0"
     inkscape:current-layer="svg12" />
  <path
     stroke="none"
     d="M0 0h24v24H0z"
     fill="none"
     id="path2" />
  <path
     d="M12 12m-9 0a9 9 0 1 0 18 0a9 9 0 1 0 -18 0"
     id="path4"
     style="stroke:#ffffff" />
  <path
     d="M12 12m-1 0a1 1 0 1 0 2 0a1 1 0 1 0 -2 0"
     id="path6"
     style="stroke:#ffffff" />
  <path
     d="M7 12a5 5 0 0 1 5 -5"
     id="path8"
     style="stroke:#ffffff" />
  <path
     d="M12 17a5 5 0 0 0 5 -5"
     id="path10"
     style="stroke:#ffffff" />
</svg>
