<?xml version="1.0" encoding="UTF-8" standalone="no"?>
<svg
   width="16"
   height="16"
   fill="currentColor"
   class="bi bi-eyedropper"
   viewBox="0 0 16 16"
   version="1.1"
   id="svg12"
   sodipodi:docname="eyedropper.svg"
   inkscape:version="1.2.2 (b0a84865, 2022-12-01)"
   xmlns:inkscape="http://www.inkscape.org/namespaces/inkscape"
   xmlns:sodipodi="http://sodipodi.sourceforge.net/DTD/sodipodi-0.dtd"
   xmlns="http://www.w3.org/2000/svg"
   xmlns:svg="http://www.w3.org/2000/svg">
  <defs
     id="defs16" />
  <sodipodi:namedview
     id="namedview14"
     pagecolor="#ffffff"
     bordercolor="#000000"
     borderopacity="0.25"
     inkscape:showpageshadow="2"
     inkscape:pageopacity="0.0"
     inkscape:pagecheckerboard="0"
     inkscape:deskcolor="#d1d1d1"
     showgrid="false"
     inkscape:zoom="14.75"
     inkscape:cx="8"
     inkscape:cy="8"
     inkscape:window-width="1309"
     inkscape:window-height="456"
     inkscape:window-x="0"
     inkscape:window-y="38"
     inkscape:window-maximized="0"
     inkscape:current-layer="svg12" />
  <path
     d="M13.354.646a1.207 1.207 0 0 0-1.708 0L8.5 3.793l-.646-.647a.5.5 0 1 0-.708.708L8.293 5l-7.147 7.146A.5.5 0 0 0 1 12.5v1.793l-.854.853a.5.5 0 1 0 .708.707L1.707 15H3.5a.5.5 0 0 0 .354-.146L11 7.707l1.146 1.147a.5.5 0 0 0 .708-.708l-.647-.646 3.147-3.146a1.207 1.207 0 0 0 0-1.708l-2-2zM2 12.707l7-7L10.293 7l-7 7H2v-1.293z"
     id="path10"
     style="fill:#ffffff" />
</svg>
