<?xml version="1.0" encoding="UTF-8" standalone="no"?>
<svg
   width="16"
   height="16"
   fill="currentColor"
   class="bi bi-repeat"
   viewBox="0 0 16 16"
   version="1.1"
   id="svg4"
   sodipodi:docname="repeat.svg"
   inkscape:version="1.2.2 (b0a84865, 2022-12-01)"
   xmlns:inkscape="http://www.inkscape.org/namespaces/inkscape"
   xmlns:sodipodi="http://sodipodi.sourceforge.net/DTD/sodipodi-0.dtd"
   xmlns="http://www.w3.org/2000/svg"
   xmlns:svg="http://www.w3.org/2000/svg">
  <defs
     id="defs8" />
  <sodipodi:namedview
     id="namedview6"
     pagecolor="#ffffff"
     bordercolor="#000000"
     borderopacity="0.25"
     inkscape:showpageshadow="2"
     inkscape:pageopacity="0.0"
     inkscape:pagecheckerboard="0"
     inkscape:deskcolor="#d1d1d1"
     showgrid="false"
     inkscape:zoom="14.75"
     inkscape:cx="8"
     inkscape:cy="8"
     inkscape:window-width="1309"
     inkscape:window-height="456"
     inkscape:window-x="0"
     inkscape:window-y="38"
     inkscape:window-maximized="0"
     inkscape:current-layer="svg4" />
  <path
     d="M11 5.466V4H5a4 4 0 0 0-3.584 5.777.5.5 0 1 1-.896.446A5 5 0 0 1 5 3h6V1.534a.25.25 0 0 1 .41-.192l2.36 1.966c.12.1.12.284 0 .384l-2.36 1.966a.25.25 0 0 1-.41-.192Zm3.81.086a.5.5 0 0 1 .67.225A5 5 0 0 1 11 13H5v1.466a.25.25 0 0 1-.41.192l-2.36-1.966a.25.25 0 0 1 0-.384l2.36-1.966a.25.25 0 0 1 .41.192V12h6a4 4 0 0 0 3.585-5.777.5.5 0 0 1 .225-.67Z"
     id="path2"
     style="fill:#ffffff" />
</svg>
