<?xml version="1.0" encoding="UTF-8" standalone="no"?>
<svg
   width="16"
   height="16"
   fill="currentColor"
   class="bi bi-floppy-fill"
   viewBox="0 0 16 16"
   version="1.1"
   id="svg6"
   sodipodi:docname="save.svg"
   inkscape:version="1.2.2 (b0a84865, 2022-12-01)"
   xmlns:inkscape="http://www.inkscape.org/namespaces/inkscape"
   xmlns:sodipodi="http://sodipodi.sourceforge.net/DTD/sodipodi-0.dtd"
   xmlns="http://www.w3.org/2000/svg"
   xmlns:svg="http://www.w3.org/2000/svg">
  <defs
     id="defs10" />
  <sodipodi:namedview
     id="namedview8"
     pagecolor="#ffffff"
     bordercolor="#000000"
     borderopacity="0.25"
     inkscape:showpageshadow="2"
     inkscape:pageopacity="0.0"
     inkscape:pagecheckerboard="0"
     inkscape:deskcolor="#d1d1d1"
     showgrid="false"
     inkscape:zoom="14.75"
     inkscape:cx="8"
     inkscape:cy="8"
     inkscape:window-width="1309"
     inkscape:window-height="456"
     inkscape:window-x="0"
     inkscape:window-y="38"
     inkscape:window-maximized="0"
     inkscape:current-layer="svg6" />
  <path
     d="M0 1.5A1.5 1.5 0 0 1 1.5 0H3v5.5A1.5 1.5 0 0 0 4.5 7h7A1.5 1.5 0 0 0 13 5.5V0h.086a1.5 1.5 0 0 1 1.06.44l1.415 1.414A1.5 1.5 0 0 1 16 2.914V14.5a1.5 1.5 0 0 1-1.5 1.5H14v-5.5A1.5 1.5 0 0 0 12.5 9h-9A1.5 1.5 0 0 0 2 10.5V16h-.5A1.5 1.5 0 0 1 0 14.5v-13Z"
     id="path2"
     style="fill:#ffffff" />
  <path
     d="M3 16h10v-5.5a.5.5 0 0 0-.5-.5h-9a.5.5 0 0 0-.5.5V16Zm9-16H4v5.5a.5.5 0 0 0 .5.5h7a.5.5 0 0 0 .5-.5V0ZM9 1h2v4H9V1Z"
     id="path4"
     style="fill:#ffffff" />
</svg>
