<?xml version="1.0" encoding="UTF-8" standalone="no"?>
<svg
   class="icon icon-tabler icon-tabler-player-skip-back-filled"
   width="24"
   height="24"
   viewBox="0 0 24 24"
   stroke-width="1.75"
   stroke="currentColor"
   fill="none"
   stroke-linecap="round"
   stroke-linejoin="round"
   version="1.1"
   id="svg8"
   sodipodi:docname="skip-prev.svg"
   inkscape:version="1.2.2 (b0a84865, 2022-12-01)"
   xmlns:inkscape="http://www.inkscape.org/namespaces/inkscape"
   xmlns:sodipodi="http://sodipodi.sourceforge.net/DTD/sodipodi-0.dtd"
   xmlns="http://www.w3.org/2000/svg"
   xmlns:svg="http://www.w3.org/2000/svg">
  <defs
     id="defs12" />
  <sodipodi:namedview
     id="namedview10"
     pagecolor="#ffffff"
     bordercolor="#000000"
     borderopacity="0.25"
     inkscape:showpageshadow="2"
     inkscape:pageopacity="0.0"
     inkscape:pagecheckerboard="0"
     inkscape:deskcolor="#d1d1d1"
     showgrid="false"
     inkscape:zoom="9.8333333"
     inkscape:cx="12"
     inkscape:cy="12"
     inkscape:window-width="1309"
     inkscape:window-height="456"
     inkscape:window-x="0"
     inkscape:window-y="38"
     inkscape:window-maximized="0"
     inkscape:current-layer="svg8" />
  <path
     stroke="none"
     d="M0 0h24v24H0z"
     fill="none"
     id="path2" />
  <path
     d="M19.496 4.136l-12 7a1 1 0 0 0 0 1.728l12 7a1 1 0 0 0 1.504 -.864v-14a1 1 0 0 0 -1.504 -.864z"
     stroke-width="0"
     fill="currentColor"
     id="path4"
     style="fill:#ffffff" />
  <path
     d="M4 4a1 1 0 0 1 .993 .883l.007 .117v14a1 1 0 0 1 -1.993 .117l-.007 -.117v-14a1 1 0 0 1 1 -1z"
     stroke-width="0"
     fill="currentColor"
     id="path6"
     style="fill:#ffffff" />
</svg>
