<?xml version="1.0" encoding="UTF-8" standalone="no"?>
<svg
   width="16"
   height="16"
   fill="currentColor"
   class="bi bi-question-diamond-fill"
   viewBox="0 0 16 16"
   version="1.1"
   id="svg4"
   sodipodi:docname="unknown.svg"
   inkscape:version="1.2.2 (b0a84865, 2022-12-01)"
   xmlns:inkscape="http://www.inkscape.org/namespaces/inkscape"
   xmlns:sodipodi="http://sodipodi.sourceforge.net/DTD/sodipodi-0.dtd"
   xmlns="http://www.w3.org/2000/svg"
   xmlns:svg="http://www.w3.org/2000/svg">
  <defs
     id="defs8" />
  <sodipodi:namedview
     id="namedview6"
     pagecolor="#ffffff"
     bordercolor="#000000"
     borderopacity="0.25"
     inkscape:showpageshadow="2"
     inkscape:pageopacity="0.0"
     inkscape:pagecheckerboard="0"
     inkscape:deskcolor="#d1d1d1"
     showgrid="false"
     inkscape:zoom="14.75"
     inkscape:cx="8"
     inkscape:cy="8"
     inkscape:window-width="1309"
     inkscape:window-height="456"
     inkscape:window-x="0"
     inkscape:window-y="38"
     inkscape:window-maximized="0"
     inkscape:current-layer="svg4" />
  <path
     d="M9.05.435c-.58-.58-1.52-.58-2.1 0L.436 6.95c-.58.58-.58 1.519 0 2.098l6.516 6.516c.58.58 1.519.58 2.098 0l6.516-6.516c.58-.58.58-1.519 0-2.098L9.05.435zM5.495 6.033a.237.237 0 0 1-.24-.247C5.35 4.091 6.737 3.5 8.005 3.5c1.396 0 2.672.73 2.672 2.24 0 1.08-.635 1.594-1.244 2.057-.737.559-1.01.768-1.01 1.486v.105a.25.25 0 0 1-.25.25h-.81a.25.25 0 0 1-.25-.246l-.004-.217c-.038-.927.495-1.498 1.168-1.987.59-.444.965-.736.965-1.371 0-.825-.628-1.168-1.314-1.168-.803 0-1.253.478-1.342 1.134-.018.137-.128.25-.266.25h-.825zm2.325 6.443c-.584 0-1.009-.394-1.009-.927 0-.552.425-.94 1.01-.94.609 0 1.028.388 1.028.94 0 .533-.42.927-1.029.927z"
     id="path2"
     style="fill:#ffffff" />
</svg>
