<?xml version="1.0" encoding="UTF-8" standalone="no"?>
<svg
   class="ionicon"
   viewBox="0 0 512 512"
   version="1.1"
   id="svg126"
   sodipodi:docname="add-tracks.svg"
   inkscape:version="1.2.2 (b0a84865, 2022-12-01)"
   xmlns:inkscape="http://www.inkscape.org/namespaces/inkscape"
   xmlns:sodipodi="http://sodipodi.sourceforge.net/DTD/sodipodi-0.dtd"
   xmlns="http://www.w3.org/2000/svg"
   xmlns:svg="http://www.w3.org/2000/svg">
  <defs
     id="defs130" />
  <sodipodi:namedview
     id="namedview128"
     pagecolor="#ffffff"
     bordercolor="#000000"
     borderopacity="0.25"
     inkscape:showpageshadow="2"
     inkscape:pageopacity="0.0"
     inkscape:pagecheckerboard="0"
     inkscape:deskcolor="#d1d1d1"
     showgrid="false"
     inkscape:zoom="0.4609375"
     inkscape:cx="256"
     inkscape:cy="256"
     inkscape:window-width="1309"
     inkscape:window-height="456"
     inkscape:window-x="0"
     inkscape:window-y="38"
     inkscape:window-maximized="0"
     inkscape:current-layer="svg126" />
  <path
     d="M408 112H184a72 72 0 00-72 72v224a72 72 0 0072 72h224a72 72 0 0072-72V184a72 72 0 00-72-72zm-32.45 200H312v63.55c0 8.61-6.62 16-15.23 16.43A16 16 0 01280 376v-64h-63.55c-8.61 0-16-6.62-16.43-15.23A16 16 0 01216 280h64v-63.55c0-8.61 6.62-16 15.23-16.43A16 16 0 01312 216v64h64a16 16 0 0116 16.77c-.42 8.61-7.84 15.23-16.45 15.23z"
     id="path122"
     style="fill:#ffffff" />
  <path
     d="M395.88 80A72.12 72.12 0 00328 32H104a72 72 0 00-72 72v224a72.12 72.12 0 0048 67.88V160a80 80 0 0180-80z"
     id="path124"
     style="fill:#ffffff" />
</svg>
