<?xml version="1.0" encoding="UTF-8" standalone="no"?>
<svg
   class="ionicon"
   viewBox="0 0 512 512"
   version="1.1"
   id="svg4"
   sodipodi:docname="unknown.svg"
   inkscape:version="1.2.2 (b0a84865, 2022-12-01)"
   xmlns:inkscape="http://www.inkscape.org/namespaces/inkscape"
   xmlns:sodipodi="http://sodipodi.sourceforge.net/DTD/sodipodi-0.dtd"
   xmlns="http://www.w3.org/2000/svg"
   xmlns:svg="http://www.w3.org/2000/svg">
  <defs
     id="defs8" />
  <sodipodi:namedview
     id="namedview6"
     pagecolor="#ffffff"
     bordercolor="#000000"
     borderopacity="0.25"
     inkscape:showpageshadow="2"
     inkscape:pageopacity="0.0"
     inkscape:pagecheckerboard="0"
     inkscape:deskcolor="#d1d1d1"
     showgrid="false"
     inkscape:zoom="0.4609375"
     inkscape:cx="256"
     inkscape:cy="256"
     inkscape:window-width="1309"
     inkscape:window-height="456"
     inkscape:window-x="0"
     inkscape:window-y="38"
     inkscape:window-maximized="0"
     inkscape:current-layer="svg4" />
  <path
     d="M256 64C150 64 64 150 64 256s86 192 192 192 192-86 192-192S362 64 256 64zm-6 304a20 20 0 1120-20 20 20 0 01-20 20zm33.44-102C267.23 276.88 265 286.85 265 296a14 14 0 01-28 0c0-21.91 10.08-39.33 30.82-53.26C287.1 229.8 298 221.6 298 203.57c0-12.26-7-21.57-21.49-28.46-3.41-1.62-11-3.2-20.34-3.09-11.72.15-20.82 2.95-27.83 8.59C215.12 191.25 214 202.83 214 203a14 14 0 11-28-1.35c.11-2.43 1.8-24.32 24.77-42.8 11.91-9.58 27.06-14.56 45-14.78 12.7-.15 24.63 2 32.72 5.82C312.7 161.34 326 180.43 326 203.57c0 33.83-22.61 49.02-42.56 62.43z"
     id="path2"
     style="fill:#ffffff" />
</svg>
