<?xml version="1.0" encoding="UTF-8" standalone="no"?>
<svg
   width="16"
   height="16"
   fill="currentColor"
   class="bi bi-repeat-1"
   viewBox="0 0 16 16"
   version="1.1"
   id="svg6"
   sodipodi:docname="repeat-one.svg"
   inkscape:version="1.2.2 (b0a84865, 2022-12-01)"
   xmlns:inkscape="http://www.inkscape.org/namespaces/inkscape"
   xmlns:sodipodi="http://sodipodi.sourceforge.net/DTD/sodipodi-0.dtd"
   xmlns="http://www.w3.org/2000/svg"
   xmlns:svg="http://www.w3.org/2000/svg">
  <defs
     id="defs10" />
  <sodipodi:namedview
     id="namedview8"
     pagecolor="#ffffff"
     bordercolor="#000000"
     borderopacity="0.25"
     inkscape:showpageshadow="2"
     inkscape:pageopacity="0.0"
     inkscape:pagecheckerboard="0"
     inkscape:deskcolor="#d1d1d1"
     showgrid="false"
     inkscape:zoom="14.75"
     inkscape:cx="8"
     inkscape:cy="8"
     inkscape:window-width="1309"
     inkscape:window-height="456"
     inkscape:window-x="0"
     inkscape:window-y="38"
     inkscape:window-maximized="0"
     inkscape:current-layer="svg6" />
  <path
     d="M11 4v1.466a.25.25 0 0 0 .41.192l2.36-1.966a.25.25 0 0 0 0-.384l-2.36-1.966a.25.25 0 0 0-.41.192V3H5a5 5 0 0 0-4.48 7.223.5.5 0 0 0 .896-.446A4 4 0 0 1 5 4h6Zm4.48 1.777a.5.5 0 0 0-.896.446A4 4 0 0 1 11 12H5.001v-1.466a.25.25 0 0 0-.41-.192l-2.36 1.966a.25.25 0 0 0 0 .384l2.36 1.966a.25.25 0 0 0 .41-.192V13h6a5 5 0 0 0 4.48-7.223Z"
     id="path2"
     style="fill:#ffffff" />
  <path
     d="M9 5.5a.5.5 0 0 0-.854-.354l-1.75 1.75a.5.5 0 1 0 .708.708L8 6.707V10.5a.5.5 0 0 0 1 0v-5Z"
     id="path4"
     style="fill:#ffffff" />
</svg>
