<?xml version="1.0" encoding="UTF-8" standalone="no"?>
<svg
   class="ionicon"
   viewBox="0 0 512 512"
   version="1.1"
   id="svg6"
   sodipodi:docname="save.svg"
   inkscape:version="1.2.2 (b0a84865, 2022-12-01)"
   xmlns:inkscape="http://www.inkscape.org/namespaces/inkscape"
   xmlns:sodipodi="http://sodipodi.sourceforge.net/DTD/sodipodi-0.dtd"
   xmlns="http://www.w3.org/2000/svg"
   xmlns:svg="http://www.w3.org/2000/svg">
  <defs
     id="defs10" />
  <sodipodi:namedview
     id="namedview8"
     pagecolor="#ffffff"
     bordercolor="#000000"
     borderopacity="0.25"
     inkscape:showpageshadow="2"
     inkscape:pageopacity="0.0"
     inkscape:pagecheckerboard="0"
     inkscape:deskcolor="#d1d1d1"
     showgrid="false"
     inkscape:zoom="0.4609375"
     inkscape:cx="256"
     inkscape:cy="256"
     inkscape:window-width="1309"
     inkscape:window-height="456"
     inkscape:window-x="0"
     inkscape:window-y="38"
     inkscape:window-maximized="0"
     inkscape:current-layer="svg6" />
  <path
     d="M465.94 119.76l-73.7-73.7A47.68 47.68 0 00358.3 32H96a64 64 0 00-64 64v320a64 64 0 0064 64h320a64 64 0 0064-64V153.7a47.68 47.68 0 00-14.06-33.94zM120 112h176a8 8 0 018 8v48a8 8 0 01-8 8H120a8 8 0 01-8-8v-48a8 8 0 018-8zm139.75 319.91a80 80 0 1176.16-76.16 80.06 80.06 0 01-76.16 76.16z"
     id="path2"
     style="stroke:#ffffff;fill:#ffffff" />
  <circle
     cx="256"
     cy="352"
     r="48"
     id="circle4"
     style="stroke:#ffffff;fill:#ffffff" />
</svg>
